<?xml version="1.0" standalone="no"?>
<!DOCTYPE svg PUBLIC "-//W3C//DTD SVG 20010904//EN"
 "http://www.w3.org/TR/2001/REC-SVG-20010904/DTD/svg10.dtd">
<svg version="1.0" xmlns="http://www.w3.org/2000/svg"
 width="400px" height="300px" viewBox="0 0 500 300"
 preserveAspectRatio="xMidYMid meet">

<g transform="translate(0.000000,500.000000) scale(0.100000,-0.100000)"
fill="#000000" stroke="none">
<path d="M2336 3569 c-20 -16 -26 -29 -26 -59 0 -32 -42 -111 -252 -475 -222
-383 -257 -438 -285 -450 -63 -27 -69 -105 -10 -133 53 -25 107 18 104 83 0
11 113 216 251 455 208 359 259 439 290 460 54 37 58 105 7 128 -36 17 -48 15
-79 -9z m69 -54 c0 -23 -5 -30 -19 -30 -28 0 -43 29 -26 50 21 25 45 14 45
-20z m-581 -987 c8 -14 7 -21 -6 -34 -30 -30 -75 9 -48 42 16 18 39 15 54 -8z"/>
<path d="M2598 3563 c-17 -20 -612 -1049 -621 -1075 -3 -10 1 -24 9 -33 13
-13 58 -15 303 -15 244 0 290 -2 301 -15 18 -22 76 -19 100 5 60 60 -28 156
-96 105 -15 -12 -64 -14 -261 -15 -134 0 -243 3 -243 8 0 13 527 926 536 929
16 5 74 -113 74 -151 0 -45 29 -76 70 -76 17 0 39 9 50 20 11 11 20 33 20 50
0 31 -30 70 -53 70 -6 0 -40 47 -75 105 -65 109 -84 123 -114 88z m197 -263
c0 -18 -6 -26 -23 -28 -13 -2 -25 3 -28 12 -10 26 4 48 28 44 17 -2 23 -10 23
-28z m-130 -820 c0 -19 -6 -26 -24 -28 -29 -4 -43 15 -30 41 15 28 54 19 54
-13z"/>
<path d="M2532 3077 c-6 -7 -56 -89 -112 -182 l-100 -170 207 -5 208 -5 70
-121 c38 -67 76 -129 84 -138 12 -14 37 -16 200 -14 l186 3 3 28 c3 21 -35 91
-160 300 -89 149 -173 282 -185 295 -21 21 -29 22 -206 22 -139 0 -187 -3
-195 -13z"/>
<path d="M1604 2136 c-17 -13 -19 -30 -22 -160 l-4 -146 36 0 35 0 3 53 c3 45
6 52 26 55 21 3 22 0 22 -52 l0 -56 35 0 35 0 0 140 c0 127 -2 142 -20 160
-24 24 -115 28 -146 6z m96 -91 c0 -52 -1 -55 -25 -55 -24 0 -25 3 -25 55 0
52 1 55 25 55 24 0 25 -3 25 -55z"/>
<path d="M2002 2134 c-21 -14 -22 -22 -22 -148 0 -89 4 -136 12 -144 14 -14
126 -16 148 -2 10 6 16 32 18 84 l4 76 -46 0 c-42 0 -46 -2 -46 -25 0 -14 5
-25 10 -25 6 0 10 -18 10 -41 0 -36 -2 -40 -22 -37 -22 3 -23 7 -23 113 0 105
1 110 22 113 16 2 22 -3 25 -20 2 -18 9 -23 33 -23 25 0 31 4 33 27 5 42 -28
68 -86 68 -27 0 -57 -7 -70 -16z"/>
<path d="M2212 2134 c-21 -14 -22 -22 -22 -140 0 -69 5 -134 10 -145 9 -16 22
-19 78 -19 40 0 73 5 80 12 8 8 12 55 12 144 0 126 -1 134 -22 148 -12 9 -43
16 -68 16 -25 0 -56 -7 -68 -16z m96 -146 c-3 -109 -4 -113 -25 -116 -23 -3
-23 -2 -23 112 l0 116 25 0 26 0 -3 -112z"/>
<path d="M2434 2136 c-17 -13 -19 -29 -22 -160 l-3 -146 35 0 36 0 0 136 c0
135 0 135 23 132 21 -3 22 -7 25 -135 l3 -133 29 0 30 0 0 144 c0 138 -1 146
-22 160 -28 20 -108 21 -134 2z"/>
<path d="M2650 2130 c-18 -18 -20 -33 -20 -160 l0 -140 35 0 35 0 0 56 c0 52
1 55 23 52 19 -3 22 -10 25 -55 l3 -53 35 0 36 0 -4 146 c-4 169 -6 174 -95
174 -40 0 -58 -5 -73 -20z m100 -85 c0 -52 -1 -55 -25 -55 -24 0 -25 3 -25 55
0 52 1 55 25 55 24 0 25 -3 25 -55z"/>
<path d="M3092 2134 c-19 -13 -22 -24 -22 -79 0 -76 14 -95 71 -95 39 0 39 0
39 -40 0 -36 -2 -40 -25 -40 -18 0 -25 5 -25 20 0 16 -7 20 -30 20 -26 0 -30
-4 -30 -26 0 -52 15 -64 84 -64 80 0 91 11 91 96 0 73 -9 85 -67 93 -41 6 -43
7 -43 41 0 41 32 57 42 21 4 -15 13 -21 34 -21 25 0 29 4 29 29 0 38 -32 61
-85 61 -22 0 -51 -7 -63 -16z"/>
<path d="M1810 1985 l0 -155 70 0 70 0 0 30 c0 28 -3 30 -35 30 l-35 0 0 125
0 125 -35 0 -35 0 0 -155z"/>
<path d="M2860 1985 l0 -155 35 0 35 0 0 60 0 60 33 0 c18 0 43 7 55 16 19 13
22 24 22 79 0 86 -10 95 -106 95 l-74 0 0 -155z m110 65 c0 -43 -3 -50 -20
-50 -17 0 -20 7 -20 50 0 43 3 50 20 50 17 0 20 -7 20 -50z"/>
<path d="M3280 1985 l0 -155 76 0 75 0 -3 28 c-3 23 -8 27 -40 30 -36 3 -38 5
-38 38 0 32 2 34 35 34 30 0 35 3 35 24 0 21 -6 25 -32 28 -30 3 -33 6 -36 41
l-3 37 40 0 c37 0 41 2 41 25 0 24 -2 25 -75 25 l-75 0 0 -155z"/>
</g>
</svg>
