 <svg  version="1.0" xmlns="http://www.w3.org/2000/svg"  width="300.000000px" height="300.000000px" viewBox="0 0 500.000000 300.000000"  preserveAspectRatio="xMidYMid meet">  <g transform="translate(0.000000,300.000000) scale(0.100000,-0.100000)" fill="#1c750b" stroke="none"> <path d="M2764 2831 c-359 -231 -718 -541 -1107 -956 -253 -270 -446 -512 -675 -852 -68 -101 -127 -183 -132 -183 -4 0 -12 12 -18 27 -115 315 -219 480 -342 543 -37 19 -56 21 -129 18 -78 -3 -93 -6 -145 -38 -33 -19 -93 -67 -134 -105 l-75 -71 114 -114 c121 -121 177 -197 278 -373 93 -161 193 -408 241 -595 7 -27 16 -42 23 -39 7 2 59 40 117 84 58 43 151 109 207 146 l101 68 68 122 c352 636 688 1133 1026 1519 191 218 497 514 721 696 43 35 81 70 84 78 6 16 -72 104 -92 104 -5 -1 -65 -36 -131 -79z"/> </g> </svg> 