<?xml version="1.0" standalone="no"?>
<!DOCTYPE svg PUBLIC "-//W3C//DTD SVG 20010904//EN"
 "http://www.w3.org/TR/2001/REC-SVG-20010904/DTD/svg10.dtd">
<svg version="1.0" xmlns="http://www.w3.org/2000/svg"
 width="300.000000px" height="300.000000px" viewBox="0 0 500.000000 300.000000"
 preserveAspectRatio="xMidYMid meet">
<metadata>
Created by potrace 1.10, written by Peter Selinger 2001-2011
</metadata>
<g transform="translate(0.000000,300.000000) scale(0.100000,-0.100000)"
fill="#43e137" stroke="none">
<path d="M1279 2980 c-333 -52 -647 -227 -874 -487 -183 -209 -292 -435 -346
-715 -19 -99 -21 -135 -16 -322 7 -282 34 -401 147 -633 157 -322 459 -601
790 -729 176 -68 276 -84 518 -84 179 0 228 3 310 21 285 62 495 180 717 403
143 144 210 234 284 383 62 124 104 250 132 394 19 100 21 136 16 328 -4 201
-7 224 -36 334 -53 204 -128 364 -239 514 -224 302 -522 497 -882 578 -87 20
-429 29 -521 15z m506 -202 c241 -56 436 -166 620 -353 194 -196 298 -392 357
-670 27 -130 29 -358 5 -491 -66 -364 -274 -676 -584 -881 -201 -132 -422
-194 -688 -194 -348 1 -615 108 -867 350 -198 189 -310 379 -374 633 -35 140
-44 393 -20 548 18 116 69 276 117 372 53 105 149 237 240 329 218 220 450
336 764 383 72 10 342 -6 430 -26z"/>
<path d="M935 2031 c-60 -27 -121 -94 -146 -159 -77 -204 118 -420 328 -363
62 17 136 80 167 142 34 70 37 177 5 244 -24 51 -95 120 -144 141 -49 20 -161
18 -210 -5z"/>
<path d="M1842 2029 c-58 -29 -126 -107 -142 -164 -19 -69 -9 -174 23 -228
113 -192 376 -178 483 25 28 51 25 180 -4 235 -28 54 -86 111 -137 134 -58 27
-167 26 -223 -2z"/>
<path d="M584 1428 c33 -350 241 -648 549 -788 288 -130 641 -94 892 92 215
160 354 393 384 643 17 137 24 125 -78 125 l-90 0 -6 -47 c-36 -298 -183 -519
-420 -633 -108 -51 -191 -70 -311 -70 -129 0 -220 20 -319 69 -241 120 -390
340 -420 619 l-7 62 -90 0 -91 0 7 -72z"/>
</g>
</svg>
