<?xml version="1.0" standalone="no"?>
<!DOCTYPE svg PUBLIC "-//W3C//DTD SVG 20010904//EN"
 "http://www.w3.org/TR/2001/REC-SVG-20010904/DTD/svg10.dtd">
<svg version="1.0" xmlns="http://www.w3.org/2000/svg"
 width="300.000000px" height="300.000000px" viewBox="0 0 500.000000 300.000000"
 preserveAspectRatio="xMidYMid meet">
<metadata>
Created by potrace 1.10, written by Peter Selinger 2001-2011
</metadata>
<g transform="translate(0.000000,300.000000) scale(0.050000,-0.050000)"
fill="#ff9742" stroke="none">
<path d="M2911 5949 c-44 -45 -39 -91 20 -170 275 -374 -84 -1312 -599 -1562
-153 -75 -145 22 30 378 106 214 112 266 35 306 -165 89 -749 -347 -914 -682
-120 -243 -122 -370 -20 -899 120 -614 86 -955 -82 -851 -58 36 -161 347 -161
486 0 38 -19 85 -49 119 -86 99 -145 43 -235 -224 -562 -1676 255 -2825 2004
-2818 1804 7 2627 966 2171 2533 -141 483 -603 1431 -716 1466 -80 26 -155
-49 -155 -153 0 -53 -80 -238 -103 -238 -10 0 -16 190 -12 445 5 485 -1 524
-125 818 -146 344 -518 774 -893 1033 -74 52 -152 57 -196 13z m401 -399 c32
-27 75 -50 95 -50 25 0 33 -10 26 -30 -7 -18 17 -59 62 -104 41 -41 64 -67 50
-59 -17 10 -21 5 -12 -16 6 -18 25 -29 42 -26 17 3 33 -11 36 -30 3 -19 17
-47 32 -62 60 -64 109 -144 144 -238 28 -75 42 -93 57 -72 14 20 17 16 10 -17
-6 -27 2 -48 20 -55 16 -6 25 -22 21 -36 -5 -14 6 -61 25 -105 47 -112 64
-257 34 -290 -19 -20 -19 -23 1 -12 15 9 25 2 25 -17 0 -17 -8 -31 -17 -31
-19 0 -15 -85 6 -119 7 -11 4 -21 -8 -21 -11 0 -21 -10 -21 -21 0 -12 10 -15
22 -8 15 9 15 0 -1 -30 -18 -33 -18 -50 -1 -71 15 -18 17 -45 7 -74 -20 -58
-22 -175 -2 -163 8 5 16 -7 17 -27 3 -71 16 -115 37 -122 12 -4 21 -19 21 -32
0 -82 140 -70 233 20 99 95 141 108 162 53 7 -19 33 -51 57 -70 25 -19 42 -51
39 -70 -3 -19 5 -41 17 -49 12 -8 23 -24 25 -35 1 -12 4 -25 7 -31 6 -12 14
-44 18 -69 1 -10 16 -32 33 -49 17 -17 35 -52 40 -77 5 -24 18 -48 29 -52 11
-3 20 -19 20 -34 0 -48 63 -189 80 -179 9 6 14 -6 11 -25 -3 -19 3 -46 14 -60
11 -14 14 -25 6 -25 -8 0 0 -14 18 -31 17 -18 32 -47 33 -65 1 -19 4 -52 5
-74 2 -22 13 -38 25 -36 12 2 23 -27 24 -65 2 -38 11 -85 21 -104 10 -19 14
-46 9 -60 -5 -14 0 -25 10 -25 11 0 16 -18 10 -40 -6 -24 -1 -40 14 -40 16 0
21 -19 15 -50 -5 -27 -1 -50 9 -50 11 0 13 -27 5 -62 -9 -43 -5 -68 13 -79 19
-12 20 -28 5 -63 -12 -25 -15 -64 -7 -86 8 -22 13 -123 12 -225 -1 -102 3
-185 10 -185 24 0 10 -72 -25 -136 -20 -36 -37 -92 -37 -125 0 -32 -8 -59 -18
-59 -18 0 -52 -96 -45 -126 2 -10 -5 -11 -17 -4 -11 7 -20 2 -20 -10 0 -12
-19 -47 -42 -79 -25 -33 -36 -68 -27 -82 10 -16 7 -20 -8 -11 -13 8 -23 4 -23
-8 0 -12 -9 -17 -20 -10 -11 7 -20 0 -20 -16 0 -15 -22 -38 -50 -50 -27 -13
-50 -36 -50 -52 0 -16 -10 -36 -23 -44 -16 -9 -18 -5 -7 14 9 15 -4 8 -28 -17
-24 -25 -53 -45 -64 -45 -11 0 -15 -9 -8 -20 7 -11 3 -21 -9 -22 -40 -5 -51
-10 -96 -39 -25 -16 -45 -42 -45 -59 -1 -23 -4 -24 -17 -5 -12 20 -30 14 -73
-23 -32 -28 -65 -45 -74 -40 -21 14 -99 -42 -83 -59 8 -7 -19 -13 -60 -13 -40
0 -73 -8 -73 -18 0 -9 -40 -24 -90 -31 -49 -7 -90 -22 -90 -32 0 -11 -7 -18
-15 -17 -8 2 -22 1 -30 -2 -8 -3 -24 -7 -35 -10 -11 -3 -22 -7 -25 -9 -8 -7
-77 -20 -170 -33 -47 -7 -90 -20 -96 -30 -6 -10 -65 -18 -131 -18 -83 0 -116
-7 -107 -22 9 -15 0 -18 -28 -9 -52 17 -186 -8 -172 -31 6 -10 2 -18 -10 -18
-11 0 -21 9 -21 20 0 11 -22 20 -50 20 -27 0 -50 -9 -50 -20 0 -11 -25 -20
-55 -20 -39 1 -47 6 -27 18 19 12 4 21 -50 29 -109 15 -276 37 -288 37 -5 0
-27 9 -47 20 -20 10 -73 22 -117 25 -44 3 -87 17 -96 31 -9 14 -26 19 -38 11
-12 -7 -22 -3 -22 9 0 12 -8 17 -18 11 -10 -6 -22 -2 -25 8 -4 11 -25 23 -47
26 -22 3 -49 12 -60 18 -11 7 -49 19 -85 26 -36 8 -65 22 -65 33 0 10 -13 18
-30 18 -16 0 -31 11 -32 25 -1 20 -3 20 -11 0 -11 -27 -49 -35 -45 -10 6 39
-4 66 -20 56 -11 -6 -34 4 -52 22 -29 28 -37 29 -54 5 -14 -21 -17 -16 -9 19
6 26 5 41 -2 35 -7 -7 -33 7 -59 31 -25 24 -46 37 -46 28 0 -28 -249 238 -280
300 -16 32 -41 66 -55 75 -14 9 -25 34 -25 56 0 21 -12 44 -27 49 -14 6 -27
22 -28 35 0 13 -20 81 -43 152 -23 70 -42 140 -42 155 0 15 -10 27 -21 27 -14
0 -20 52 -17 145 3 80 -2 193 -11 253 -11 77 -10 103 7 94 16 -10 16 0 2 37
-10 28 -12 51 -5 51 8 0 14 47 12 105 -1 58 6 115 16 128 10 12 17 30 14 40
-2 9 8 44 21 76 13 33 26 84 28 113 2 30 11 50 19 45 8 -5 15 15 15 45 0 30 7
48 15 40 14 -15 16 -22 22 -73 2 -12 12 -16 23 -9 11 7 20 -2 20 -19 0 -17 10
-31 21 -31 12 0 17 -8 11 -17 -14 -23 165 -187 189 -172 10 6 19 2 19 -9 0
-11 18 -18 40 -17 22 2 40 10 40 17 0 8 27 23 59 35 38 13 64 39 72 72 9 32
27 51 51 51 21 0 39 11 41 25 1 14 6 48 10 75 25 154 27 360 4 355 -17 -3 -26
31 -28 115 -2 66 -8 143 -14 170 -6 28 -17 90 -24 138 -7 49 -19 98 -27 110
-8 12 -15 45 -17 72 -2 28 -10 100 -17 160 -10 80 -8 102 8 80 13 -18 22 -21
22 -6 0 13 -8 28 -17 34 -22 13 -19 132 3 167 9 14 11 43 4 64 -6 21 -1 45 14
55 14 9 46 57 70 106 24 50 62 103 85 119 23 17 41 40 41 52 0 28 106 123 170
153 27 12 43 31 36 42 -7 11 -2 14 10 6 13 -7 45 1 71 18 46 30 48 29 58 -20
5 -28 2 -56 -7 -61 -16 -10 -53 -127 -71 -228 -5 -26 -14 -56 -19 -65 -6 -9
13 -7 41 4 41 15 51 13 51 -12 0 -17 -9 -25 -20 -18 -11 7 -20 -8 -20 -33 0
-34 6 -39 23 -22 25 25 60 1 82 -60 22 -58 143 -46 204 20 34 37 51 45 51 25
1 -26 3 -26 20 0 11 17 20 23 20 14 0 -9 10 -10 22 -3 16 10 14 20 -5 32 -20
14 -17 17 13 13 43 -6 230 158 230 202 0 13 7 20 15 15 20 -12 66 39 50 55 -6
7 -1 12 12 12 12 0 23 13 23 28 0 15 13 33 29 39 38 14 111 158 111 217 1 34
5 39 18 18 12 -19 22 -3 31 54 8 44 26 86 41 91 15 6 23 27 17 50 -6 21 -1 45
11 52 12 7 22 40 22 72 0 33 9 59 20 59 11 0 20 29 20 65 0 36 8 97 18 135 33
127 45 224 27 213 -10 -6 -18 2 -18 18 0 43 39 35 105 -21z"/>
<path d="M2545 3623 c-89 -94 -108 -130 -104 -200 1 -40 1 -77 0 -83 -17 -53
-17 -180 -1 -170 11 7 20 -8 20 -34 -1 -37 -4 -40 -20 -16 -20 31 -20 31 -28
-103 -1 -18 -9 -40 -17 -49 -8 -8 -15 -46 -15 -84 0 -72 -30 -204 -63 -274
-10 -23 -20 -61 -22 -85 -2 -24 -15 -48 -29 -54 -15 -5 -20 -24 -12 -44 8 -21
5 -29 -9 -20 -20 12 -59 -93 -49 -132 2 -8 -4 -15 -15 -15 -19 0 -52 -78 -45
-105 2 -8 -4 -15 -14 -15 -19 0 -41 -60 -54 -150 -12 -87 -25 -114 -48 -100
-12 7 -15 -12 -7 -52 10 -46 7 -60 -10 -50 -14 9 -18 3 -11 -17 7 -17 4 -31
-6 -31 -11 0 -19 -29 -20 -65 0 -36 -6 -139 -12 -230 -6 -93 -3 -169 7 -176
11 -6 19 -43 19 -82 0 -40 18 -97 41 -129 23 -32 34 -58 25 -59 -9 0 1 -13 23
-30 25 -18 29 -29 12 -29 -21 0 -19 -9 6 -37 18 -20 29 -42 23 -50 -5 -7 -6
-10 0 -7 5 4 69 -51 143 -121 74 -70 145 -122 160 -117 15 6 24 0 22 -14 -3
-13 11 -21 32 -18 20 4 32 -1 26 -11 -13 -21 134 -89 267 -125 134 -36 560 -3
560 44 0 10 9 13 19 6 24 -14 185 65 207 103 9 15 34 27 56 27 22 0 47 20 57
45 10 25 19 32 20 16 1 -34 141 118 141 154 0 14 8 25 18 25 9 0 28 27 42 60
14 33 32 55 41 49 9 -5 14 7 9 29 -4 21 5 44 20 49 15 6 34 45 42 87 7 42 20
85 28 96 7 11 16 107 18 213 2 106 7 212 12 235 4 23 1 42 -6 42 -8 0 -16 65
-19 145 -3 80 -13 148 -24 151 -10 4 -14 20 -8 35 6 16 1 29 -11 29 -12 0 -22
14 -22 31 0 62 -124 153 -190 139 -174 -35 -191 -35 -179 -4 7 16 2 36 -10 43
-12 8 -16 22 -10 32 6 11 4 19 -5 19 -9 0 -14 114 -12 254 2 149 -6 271 -18
294 -16 29 -15 42 2 48 18 6 18 15 0 36 -12 15 -18 45 -13 66 6 21 2 50 -7 65
-12 19 -18 8 -18 -33 0 -40 -6 -51 -17 -34 -9 15 -13 49 -8 75 7 37 1 49 -25
49 -20 0 -46 14 -58 30 -18 25 -41 27 -114 13 -101 -18 -145 9 -208 130 -16
31 -41 57 -55 57 -14 0 -25 10 -25 22 0 30 -94 127 -123 128 -13 0 -27 7 -30
16 -34 79 -237 125 -292 67z m234 -220 c164 -164 261 -320 261 -421 0 -86 21
-88 127 -13 208 148 238 144 212 -30 -47 -327 10 -834 108 -969 41 -55 129
-22 228 85 103 110 100 112 136 -108 133 -819 -170 -1308 -831 -1342 -168 -8
-205 -3 -322 41 -594 225 -736 716 -416 1438 258 584 378 1140 307 1424 -22
87 24 62 190 -105z"/>
</g>
</svg>
