<?xml version="1.0" standalone="no"?>
<!DOCTYPE svg PUBLIC "-//W3C//DTD SVG 20010904//EN"
 "http://www.w3.org/TR/2001/REC-SVG-20010904/DTD/svg10.dtd">
<svg version="1.0" xmlns="http://www.w3.org/2000/svg"
 width="200.000000px" height="200.000000px" viewBox="0 0 100.000000 50.000000"
 preserveAspectRatio="xMidYMid meet">
<metadata>
Created by potrace 1.10, written by Peter Selinger 2001-2011
</metadata>
<g transform="translate(0.000000,792.000000) scale(0.100000,-0.100000)"
fill="#ece522" stroke="none">
<path d="M4390 7906 c0 -8 -14 -17 -32 -21 -66 -12 -159 -69 -220 -134 -32
-35 -63 -73 -69 -85 -5 -11 -13 -28 -19 -36 -14 -22 -95 -162 -103 -180 -4 -8
-16 -28 -27 -45 -11 -16 -23 -37 -27 -45 -8 -18 -119 -208 -133 -230 -6 -8
-13 -22 -17 -30 -4 -8 -32 -58 -63 -110 -31 -52 -59 -102 -63 -110 -4 -8 -16
-28 -27 -45 -11 -16 -23 -37 -27 -45 -4 -8 -26 -46 -48 -85 -23 -38 -44 -77
-48 -85 -4 -8 -16 -28 -27 -45 -11 -16 -23 -37 -27 -45 -4 -8 -25 -46 -48 -85
-22 -38 -44 -77 -48 -85 -4 -8 -16 -28 -27 -45 -11 -16 -23 -37 -27 -45 -8
-18 -119 -208 -133 -230 -6 -8 -13 -22 -17 -30 -4 -8 -32 -58 -63 -110 -31
-52 -59 -102 -63 -110 -4 -8 -16 -28 -27 -45 -11 -16 -23 -37 -27 -45 -4 -8
-25 -46 -48 -85 -22 -38 -44 -77 -48 -85 -4 -8 -16 -28 -27 -45 -11 -16 -23
-37 -27 -45 -4 -8 -32 -58 -63 -110 -31 -52 -59 -102 -63 -110 -4 -8 -16 -28
-27 -45 -11 -16 -24 -39 -29 -51 -5 -11 -27 -50 -48 -85 -22 -35 -42 -71 -46
-79 -4 -8 -16 -28 -27 -45 -11 -16 -23 -37 -27 -45 -8 -18 -89 -158 -103 -180
-6 -8 -13 -22 -17 -30 -4 -8 -32 -58 -63 -110 -31 -52 -59 -102 -63 -110 -4
-8 -16 -28 -27 -45 -11 -16 -23 -37 -27 -45 -8 -18 -119 -208 -133 -230 -6 -8
-13 -22 -17 -30 -4 -8 -32 -58 -63 -110 -31 -52 -59 -102 -63 -110 -4 -8 -16
-28 -27 -45 -11 -16 -23 -37 -27 -45 -4 -8 -25 -46 -48 -85 -22 -38 -44 -77
-48 -85 -4 -8 -16 -28 -27 -45 -11 -16 -23 -37 -27 -45 -4 -8 -32 -58 -63
-110 -31 -52 -59 -102 -63 -110 -4 -8 -16 -28 -27 -45 -11 -16 -23 -37 -27
-45 -8 -18 -89 -159 -103 -180 -6 -8 -13 -22 -17 -30 -8 -16 -147 -256 -163
-280 -6 -8 -13 -22 -17 -30 -4 -8 -25 -46 -48 -85 -22 -38 -44 -77 -48 -85 -4
-8 -16 -28 -27 -45 -11 -16 -23 -37 -27 -45 -8 -18 -119 -208 -133 -230 -6 -8
-13 -22 -17 -30 -4 -8 -32 -58 -63 -110 -31 -52 -59 -102 -63 -110 -4 -8 -16
-28 -27 -45 -11 -16 -23 -37 -27 -45 -4 -8 -26 -46 -48 -85 -23 -38 -44 -77
-48 -85 -4 -8 -16 -28 -27 -45 -11 -16 -23 -37 -27 -45 -4 -8 -32 -58 -63
-110 -31 -52 -59 -102 -63 -110 -4 -8 -16 -28 -27 -45 -11 -16 -23 -37 -27
-45 -8 -18 -89 -159 -103 -180 -6 -8 -13 -22 -17 -30 -4 -8 -32 -58 -63 -110
-31 -52 -59 -102 -63 -110 -4 -8 -16 -28 -26 -45 -35 -55 -80 -143 -96 -187
-18 -52 -20 -234 -4 -287 50 -160 172 -279 340 -330 50 -16 8228 -16 8278 0
164 50 308 188 336 322 3 15 12 27 20 27 12 0 15 20 15 110 0 97 -2 112 -20
130 -11 11 -20 27 -20 36 0 13 -51 117 -80 164 -19 29 -126 215 -133 230 -4 8
-16 29 -27 45 -11 17 -23 37 -27 45 -4 8 -26 47 -48 85 -23 39 -44 77 -48 85
-4 8 -16 29 -27 45 -11 17 -23 37 -27 45 -4 8 -32 58 -63 110 -31 52 -59 102
-63 110 -4 8 -16 29 -27 45 -11 17 -23 37 -27 45 -4 8 -25 47 -48 85 -22 39
-44 77 -48 85 -4 8 -16 29 -27 45 -11 17 -23 37 -27 45 -4 8 -26 47 -48 85
-23 39 -44 77 -48 85 -4 8 -16 29 -27 45 -11 17 -23 37 -27 45 -4 8 -32 58
-63 110 -31 52 -59 102 -63 110 -4 8 -16 29 -27 45 -11 17 -23 37 -27 45 -4 8
-26 47 -48 85 -23 39 -44 77 -48 85 -4 8 -16 29 -27 45 -11 17 -23 37 -27 45
-4 8 -32 58 -63 110 -31 52 -59 102 -63 110 -4 8 -13 24 -20 35 -7 11 -37 63
-67 115 -30 52 -60 104 -67 115 -7 11 -16 27 -20 35 -4 8 -32 58 -63 110 -31
52 -59 102 -63 110 -4 8 -16 29 -27 45 -11 17 -23 37 -27 45 -4 8 -26 47 -48
85 -23 39 -44 77 -48 85 -4 8 -16 29 -27 45 -11 17 -23 37 -27 45 -4 8 -32 58
-63 110 -31 52 -59 102 -63 110 -4 8 -16 29 -27 45 -11 17 -23 37 -27 45 -4 8
-26 47 -48 85 -23 39 -44 77 -48 85 -4 8 -16 29 -27 45 -11 17 -23 37 -27 45
-4 8 -32 58 -63 110 -31 52 -59 102 -63 110 -4 8 -16 29 -27 45 -11 17 -23 37
-27 45 -4 8 -25 47 -48 85 -22 39 -44 77 -48 85 -4 8 -16 29 -27 45 -11 17
-23 37 -27 45 -4 8 -26 47 -48 85 -23 39 -44 77 -48 85 -4 8 -16 29 -27 45
-11 17 -23 37 -27 45 -4 8 -25 47 -48 85 -22 39 -44 77 -48 85 -4 8 -16 29
-27 45 -11 17 -23 37 -27 45 -8 18 -119 208 -133 230 -6 8 -13 22 -17 30 -4 8
-32 58 -63 110 -31 52 -59 102 -63 110 -4 8 -16 29 -27 45 -11 17 -23 37 -27
45 -4 8 -26 47 -48 85 -23 39 -44 77 -48 85 -4 8 -16 29 -27 45 -11 17 -23 37
-27 45 -8 18 -119 208 -133 230 -6 8 -13 22 -17 30 -4 8 -32 58 -63 110 -31
52 -59 102 -63 110 -4 8 -16 29 -27 45 -11 17 -23 37 -27 45 -8 18 -119 208
-133 230 -6 8 -13 22 -17 30 -4 8 -32 58 -63 110 -31 52 -59 102 -63 110 -4 8
-16 29 -27 45 -11 17 -23 37 -27 45 -35 75 -141 234 -180 271 -53 52 -142 103
-197 113 -22 4 -36 13 -36 21 0 12 -19 15 -100 15 -80 0 -100 -3 -100 -14z
m120 -858 c0 -6 35 -69 78 -142 44 -72 82 -138 85 -146 4 -8 11 -22 17 -30 22
-34 90 -151 90 -155 0 -2 14 -24 30 -48 17 -25 30 -48 30 -52 0 -4 27 -51 59
-105 32 -53 62 -107 66 -119 3 -11 10 -21 15 -21 5 0 12 -10 15 -21 4 -12 40
-77 81 -144 41 -68 74 -128 74 -134 0 -6 5 -11 10 -11 6 0 10 -6 11 -12 0 -7
25 -53 55 -103 30 -49 59 -102 65 -117 6 -16 15 -28 20 -28 5 0 9 -5 9 -11 0
-6 29 -60 65 -119 36 -59 65 -111 65 -115 0 -5 11 -23 25 -41 14 -18 25 -36
25 -39 0 -4 27 -51 59 -105 32 -53 62 -107 66 -119 3 -11 11 -21 16 -21 5 0 9
-5 9 -11 0 -10 66 -128 100 -179 6 -8 17 -28 25 -45 9 -16 20 -37 25 -45 30
-47 150 -252 150 -257 0 -3 29 -54 65 -113 36 -59 65 -113 65 -119 0 -6 5 -11
10 -11 6 0 10 -5 10 -11 0 -6 22 -48 49 -93 27 -44 58 -97 70 -116 12 -19 26
-47 32 -62 6 -16 15 -28 20 -28 5 0 9 -5 9 -11 0 -6 27 -55 59 -109 32 -53 62
-107 66 -119 3 -11 11 -21 16 -21 5 0 9 -5 9 -11 0 -6 28 -59 63 -118 35 -58
72 -123 82 -143 11 -21 23 -38 27 -38 5 0 8 -4 8 -10 0 -5 23 -49 51 -97 28
-48 54 -95 59 -103 5 -8 38 -65 74 -126 36 -62 66 -117 66 -123 0 -6 4 -11 9
-11 5 0 13 -10 16 -21 4 -12 40 -77 81 -144 41 -68 74 -128 74 -134 0 -6 4
-11 9 -11 5 0 12 -11 15 -25 4 -14 11 -25 16 -25 6 0 10 -5 10 -11 0 -6 20
-44 44 -84 24 -39 47 -82 50 -93 4 -12 12 -22 17 -22 5 0 9 -5 9 -11 0 -6 40
-78 90 -161 49 -82 90 -152 90 -155 0 -3 27 -50 60 -105 33 -54 60 -101 60
-104 0 -7 135 -238 161 -276 11 -15 19 -30 19 -34 0 -3 34 -62 75 -131 41 -68
75 -127 75 -130 0 -3 29 -54 65 -113 36 -59 65 -113 65 -119 0 -6 4 -11 9 -11
5 0 13 -9 16 -21 7 -21 122 -221 156 -271 11 -15 19 -31 19 -36 0 -5 7 -15 15
-22 50 -42 211 -40 -3695 -40 -3906 0 -3745 -2 -3695 40 8 7 15 16 15 21 0 4
27 54 61 111 33 57 64 110 69 118 5 8 31 55 59 103 28 48 51 92 51 97 0 6 4
10 9 10 4 0 19 23 32 50 13 28 27 50 31 50 5 0 8 5 8 11 0 6 23 48 50 94 28
46 50 88 50 94 0 6 4 11 9 11 5 0 13 10 16 21 4 12 40 77 81 144 41 68 74 126
74 129 0 4 8 19 19 34 26 38 161 269 161 276 0 3 27 50 60 104 33 55 60 105
60 111 0 6 5 11 10 11 6 0 10 5 10 11 0 6 33 66 74 134 41 67 77 132 81 144 3
11 10 21 15 21 5 0 12 10 15 21 4 12 34 66 66 119 32 54 59 100 59 103 0 4 27
51 60 105 33 55 60 105 60 111 0 6 4 11 8 11 5 0 19 23 32 50 13 28 27 50 32
50 4 0 8 5 8 11 0 6 23 48 50 94 28 46 50 88 50 94 0 6 4 11 9 11 5 0 14 12
20 28 6 15 35 68 65 117 30 50 55 96 55 103 1 6 5 12 10 12 5 0 11 8 15 18 3
9 10 24 15 32 39 60 130 221 136 239 3 11 10 21 15 21 5 0 12 10 15 21 4 12
34 66 66 119 32 54 59 101 59 105 0 4 14 27 30 52 17 24 30 46 30 48 0 2 24
44 54 93 29 49 57 99 60 110 4 12 11 22 16 22 5 0 12 10 16 22 3 11 26 54 50
93 24 40 44 78 44 84 0 6 4 11 9 11 5 0 13 10 16 21 4 12 34 66 66 119 32 54
59 102 59 108 0 5 6 15 14 21 8 7 24 31 35 54 12 23 25 49 31 57 38 59 100
170 100 179 0 6 4 11 9 11 5 0 13 10 16 21 4 12 38 73 76 136 38 63 69 116 69
120 0 3 33 60 74 128 41 67 77 132 81 144 3 11 10 21 15 21 5 0 12 10 16 22 3
11 31 62 61 112 30 49 59 99 64 111 5 11 13 27 19 35 37 57 149 251 155 269 3
11 11 21 16 21 5 0 9 5 9 11 0 6 29 60 65 119 36 59 65 111 65 115 0 4 14 27
30 52 17 24 30 46 30 48 0 3 18 34 40 70 22 36 40 68 40 71 0 3 18 36 41 74
27 47 45 67 55 63 8 -3 14 -10 14 -15z"/>
<path d="M4299 5690 c-42 -15 -102 -44 -133 -65 -64 -42 -154 -137 -182 -192
-10 -21 -21 -40 -25 -43 -3 -3 -13 -26 -23 -52 -37 -100 -36 -205 9 -563 22
-178 42 -344 59 -490 8 -71 17 -139 20 -150 3 -11 10 -67 16 -125 6 -58 17
-159 25 -225 8 -66 21 -178 30 -250 9 -71 22 -184 30 -250 19 -155 41 -340 59
-490 24 -202 35 -254 60 -294 32 -50 103 -111 139 -118 15 -3 30 -10 33 -14 7
-12 141 -12 148 0 3 4 18 11 34 14 39 8 123 85 150 139 12 25 22 63 22 84 0
21 4 55 10 74 5 19 14 85 20 145 13 123 31 277 55 470 8 72 23 189 31 260 8
72 22 182 30 245 7 63 18 162 24 220 5 58 13 114 16 125 3 11 12 79 20 150 16
135 33 286 58 490 9 66 20 163 27 215 12 105 7 286 -9 316 -6 10 -25 50 -43
88 -22 47 -53 91 -98 136 -81 82 -132 115 -236 152 -70 25 -93 28 -190 27 -94
-1 -121 -5 -186 -29z"/>
<path d="M4315 1988 c-33 -11 -62 -24 -65 -28 -3 -4 -16 -11 -29 -15 -32 -10
-176 -154 -186 -186 -4 -13 -11 -26 -14 -29 -16 -12 -43 -104 -50 -169 -8 -78
3 -219 19 -235 6 -6 10 -16 10 -24 0 -25 72 -136 119 -183 52 -51 121 -95 196
-124 72 -28 278 -29 350 -1 111 43 215 128 273 224 18 29 32 56 32 60 0 4 8
21 17 37 13 24 17 58 17 171 1 84 -3 150 -10 165 -6 13 -24 51 -39 83 -29 64
-155 198 -197 212 -13 3 -25 10 -28 14 -3 4 -33 17 -68 29 -87 30 -261 29
-347 -1z"/>
</g>
</svg>
